<svg xmlns="http://www.w3.org/2000/svg" xmlns:xlink="http://www.w3.org/1999/xlink" width="31" height="30" version="1.1" viewBox="0 0 31 30"><title>facebook</title><desc>Created with Sketch.</desc><g id="Symbols" fill="none" fill-rule="evenodd" stroke="none" stroke-width="1"><g id="//Footer/mobile" transform="translate(-144.000000, -1145.000000)"><g id="//Footer"><g id="Bottom" transform="translate(0.000000, 1000.000000)"><g id="social-media" transform="translate(104.000000, 145.000000)"><g id="facebook" transform="translate(40.312500, 0.000000)"><rect id="Rectangle-5" width="30" height="30" x="0" y="0" fill="#F7931A" rx="1"/><path id="facebook---FontAwesome" fill="#FFF" d="M20.5341916,5.61661046 L20.5341916,8.37889053 L18.8914721,8.37889053 C17.6045007,8.37889053 17.3638475,8.99621828 17.3638475,9.88558876 L17.3638475,11.8631302 L20.4295598,11.8631302 L20.0214957,14.9602321 L17.3638475,14.9602321 L17.3638475,22.9017873 L14.1621137,22.9017873 L14.1621137,14.9602321 L11.4940023,14.9602321 L11.4940023,11.8631302 L14.1621137,11.8631302 L14.1621137,9.58215648 C14.1621137,6.9349714 15.783907,5.49105227 18.1485861,5.49105227 C19.2786098,5.49105227 20.2516857,5.57475773 20.5341916,5.61661046 Z"/></g></g></g></g></g></g></svg>